<svg width="83" height="83" viewBox="0 0 83 83" fill="none" xmlns="http://www.w3.org/2000/svg">
<g opacity="0.87" clip-path="url(#clip0_85_161)" filter="url(#filter0_d_85_161)">
<path d="M66.5794 23.2295C66.8836 24.945 67.0351 26.6832 67.0321 28.4244C67.0321 36.2008 64.1981 42.7759 59.2662 47.2264H59.2727C54.9597 51.1338 49.0309 53.3958 42.0011 53.3958C35.0895 53.3958 28.4609 50.703 23.5736 45.9097C18.6864 41.1164 15.9407 34.6153 15.9407 27.8366C15.9407 21.0578 18.6864 14.5567 23.5736 9.76344C28.4609 4.97015 35.0895 2.27731 42.0011 2.27731C48.4697 2.20666 54.7161 4.58984 59.4355 8.9291L51.9953 16.2263C49.3052 13.7127 45.7162 12.3359 42.0011 12.3924C35.2026 12.3924 29.427 16.8908 27.3682 22.9483C26.2785 26.1228 26.2785 29.5599 27.3682 32.7343H27.378C29.4465 38.7823 35.2124 43.2807 42.0109 43.2807C45.5225 43.2807 48.539 42.3989 50.878 40.8398H50.8682C52.2265 39.9577 53.3885 38.8146 54.2837 37.4797C55.179 36.1447 55.789 34.6457 56.077 33.073H42.0011V23.2327L66.5794 23.2295Z" fill="url(#paint0_linear_85_161)"/>
</g>
<defs>
<filter id="filter0_d_85_161" x="1.24266e-05" y="6.69123e-06" width="84.0022" height="82.9999" filterUnits="userSpaceOnUse" color-interpolation-filters="sRGB">
<feFlood flood-opacity="0" result="BackgroundImageFix"/>
<feColorMatrix in="SourceAlpha" type="matrix" values="0 0 0 0 0 0 0 0 0 0 0 0 0 0 0 0 0 0 127 0" result="hardAlpha"/>
<feOffset dy="13.6318"/>
<feGaussianBlur stdDeviation="7.95188"/>
<feColorMatrix type="matrix" values="0 0 0 0 0 0 0 0 0 0 0 0 0 0 0 0 0 0 0.35 0"/>
<feBlend mode="normal" in2="BackgroundImageFix" result="effect1_dropShadow_85_161"/>
<feBlend mode="normal" in="SourceGraphic" in2="effect1_dropShadow_85_161" result="shape"/>
</filter>
<linearGradient id="paint0_linear_85_161" x1="41.4865" y1="2.27578" x2="41.4865" y2="53.3958" gradientUnits="userSpaceOnUse">
<stop stop-color="#D9D9D9"/>
<stop offset="1" stop-color="#666666"/>
</linearGradient>
<clipPath id="clip0_85_161">
<rect width="52" height="51" fill="white" transform="translate(15.9407 2.27725) scale(1.00232)"/>
</clipPath>
</defs>
</svg>
