<svg width="60" height="53" viewBox="0 0 60 53" fill="none" xmlns="http://www.w3.org/2000/svg">
<g opacity="0.87" clip-path="url(#clip0_32_62)" filter="url(#filter0_d_32_62)">
<path d="M33.249 13.6287V12.794L33.2316 12.803C33.0439 12.8945 32.8394 12.9464 32.6308 12.9554C32.4144 12.9725 32.1994 12.9088 32.0273 12.7765C31.9038 12.682 31.8119 12.5524 31.7634 12.4047C31.7103 12.2427 31.7042 12.0689 31.746 11.9035C31.7843 11.7337 31.8776 11.584 32.0126 11.476C32.1337 11.3776 32.2798 11.3147 32.4345 11.2944C32.7091 11.2649 32.9863 11.3169 33.2316 11.444L33.249 11.453V10.6149L33.2108 10.6059C32.9659 10.5273 32.7088 10.4936 32.4519 10.5063C32.2174 10.5119 31.9862 10.5648 31.7753 10.6615C31.56 10.759 31.3705 10.9054 31.2218 11.089C30.9935 11.3761 30.8666 11.7305 30.8608 12.0972C30.855 12.4639 30.9707 12.8222 31.1897 13.1163C31.4124 13.4004 31.7229 13.6029 32.0717 13.6844C32.4402 13.7736 32.8261 13.7603 33.1877 13.6462L33.249 13.6287ZM25.0022 13.6287V12.794L24.9848 12.803C24.7971 12.8945 24.5926 12.9464 24.384 12.9554C24.1676 12.9725 23.9526 12.9088 23.7804 12.7765C23.6578 12.6813 23.566 12.552 23.5166 12.4047C23.4634 12.2427 23.4574 12.0689 23.4992 11.9035C23.5374 11.7337 23.6308 11.584 23.7658 11.476C23.8869 11.3776 24.033 11.3147 24.1877 11.2944C24.4623 11.2649 24.7395 11.3169 24.9848 11.444L25.0022 11.453V10.6149L24.9639 10.6059C24.719 10.5273 24.462 10.4936 24.2051 10.5063C23.9706 10.5119 23.7422 10.5648 23.5284 10.6615C23.3137 10.7599 23.1244 10.9062 22.9749 11.089C22.7472 11.3763 22.6206 11.7307 22.6148 12.0972C22.609 12.4638 22.7243 12.822 22.9429 13.1163C23.1628 13.4004 23.4761 13.6029 23.8249 13.6844C24.1934 13.7736 24.5793 13.7603 24.9409 13.6462L25.0022 13.6287ZM27.9463 12.9374L27.9435 13.6552L27.9936 13.6642C28.1606 13.6934 28.3249 13.7142 28.4914 13.7289C28.6376 13.7407 28.7873 13.7435 28.9335 13.7379C29.0741 13.7259 29.2118 13.6994 29.3464 13.6585C29.5044 13.6147 29.6479 13.5354 29.7739 13.4302C29.8853 13.3334 29.973 13.2102 30.0231 13.073C30.1136 12.8384 30.1108 12.5836 30.0174 12.3524C29.9709 12.2316 29.8942 12.1247 29.7947 12.0419C29.7002 11.9558 29.5884 11.8908 29.4668 11.8512L28.9245 11.6493C28.86 11.6222 28.8078 11.5721 28.7783 11.5087C28.7661 11.4828 28.7602 11.4544 28.7612 11.4259C28.7622 11.3973 28.77 11.3694 28.7839 11.3444C28.8108 11.2981 28.8504 11.2604 28.8981 11.2359C28.9596 11.2074 29.0241 11.1888 29.0916 11.1802C29.2058 11.1655 29.3228 11.1655 29.4375 11.1858C29.5717 11.2008 29.7045 11.2242 29.8358 11.2561L29.865 11.2617V10.5997L29.8121 10.5879C29.6777 10.5573 29.5418 10.5338 29.4049 10.5175C29.2271 10.4929 29.0468 10.4919 28.8688 10.5147C28.6444 10.5364 28.4308 10.6219 28.2534 10.7611C28.1343 10.8562 28.0431 10.9817 27.9896 11.1245C27.9136 11.3427 27.9136 11.5802 27.9896 11.7984C28.0312 11.9105 28.0948 12.0061 28.1803 12.0852C28.2534 12.1554 28.3356 12.214 28.4267 12.2613C28.5437 12.326 28.6697 12.3727 28.7985 12.4075C28.8396 12.4222 28.8834 12.434 28.9245 12.4486L28.9892 12.4722L29.0066 12.4812C29.0702 12.5023 29.1282 12.5373 29.1765 12.5836C29.2108 12.6148 29.2369 12.654 29.2524 12.6978C29.2643 12.737 29.2643 12.7789 29.2524 12.8182C29.2323 12.8821 29.1881 12.9358 29.1292 12.9678C29.0646 12.9999 28.9942 13.0235 28.9211 13.0325C28.8155 13.049 28.7083 13.0539 28.6016 13.0471C28.3878 13.032 28.1759 12.9966 27.9688 12.9414L27.9463 12.9374ZM26.0889 13.6816H26.877V10.5586H26.0889V13.6816ZM35.2087 11.4811C35.378 11.3456 35.5938 11.2824 35.8094 11.3052C36.0249 11.328 36.2228 11.435 36.3599 11.603C36.497 11.7709 36.5622 11.9861 36.5414 12.2019C36.5206 12.4177 36.4154 12.6165 36.2488 12.7552L36.2342 12.7642C35.3814 13.4206 34.3824 12.1662 35.2087 11.4811ZM34.0663 12.1201C34.07 12.3643 34.128 12.6046 34.236 12.8236C34.3441 13.0426 34.4995 13.2348 34.6911 13.3863C34.8826 13.5378 35.1055 13.6447 35.3435 13.6994C35.5815 13.7541 35.8287 13.7551 36.0671 13.7024C37.5144 13.4268 37.857 11.5081 36.5914 10.7493C35.5013 10.0754 34.0922 10.8399 34.0658 12.1207L34.0663 12.1201ZM38.2209 8.04479C38.2412 8.54261 38.9797 8.54261 39 8.04479V7.18079C38.9797 6.68298 38.2412 6.68298 38.2209 7.18079V8.04479ZM36.0879 8.04479C36.1234 8.52798 36.8321 8.52798 36.867 8.04479V6.10529C36.8378 5.61592 36.12 5.61592 36.0879 6.10529V8.04479ZM33.9229 8.82723C33.9611 9.31042 34.6671 9.31042 34.7019 8.82723V4.62873C34.6817 4.13092 33.9459 4.13092 33.9229 4.62873V8.82723ZM31.7961 8.04479C31.8253 8.53417 32.5431 8.53417 32.5751 8.04479V6.10529C32.5515 5.60748 31.8163 5.60748 31.7961 6.10529V8.04479ZM29.6192 8.04479C29.6659 8.51673 30.3544 8.51673 30.3983 8.04479V7.18079C30.378 6.68298 29.6423 6.68298 29.6192 7.18079V8.04479ZM27.4688 8.04479C27.489 8.54261 28.2248 8.54261 28.2478 8.04479V6.10529C28.2242 5.60748 27.489 5.60748 27.4688 6.10529V8.04479ZM25.3037 8.82723C25.3239 9.32504 26.0597 9.32504 26.0828 8.82723V4.62873C26.0591 4.13092 25.3239 4.13092 25.3037 4.62873V8.82723ZM23.1561 8.04479C23.1999 8.52236 23.8946 8.52236 23.9351 8.04479V6.10529C23.9149 5.60748 23.1791 5.60748 23.1589 6.10529V8.04479H23.1561ZM21 8.04479C21.0354 8.52798 21.7414 8.52798 21.7791 8.04479V7.18079C21.7588 6.68298 21.0203 6.68298 21 7.18079V8.04479Z" fill="url(#paint0_linear_32_62)"/>
</g>
<defs>
<filter id="filter0_d_32_62" x="0" y="-3" width="60" height="60" filterUnits="userSpaceOnUse" color-interpolation-filters="sRGB">
<feFlood flood-opacity="0" result="BackgroundImageFix"/>
<feColorMatrix in="SourceAlpha" type="matrix" values="0 0 0 0 0 0 0 0 0 0 0 0 0 0 0 0 0 0 127 0" result="hardAlpha"/>
<feOffset dy="18"/>
<feGaussianBlur stdDeviation="10.5"/>
<feColorMatrix type="matrix" values="0 0 0 0 0 0 0 0 0 0 0 0 0 0 0 0 0 0 0.35 0"/>
<feBlend mode="normal" in2="BackgroundImageFix" result="effect1_dropShadow_32_62"/>
<feBlend mode="normal" in="SourceGraphic" in2="effect1_dropShadow_32_62" result="shape"/>
</filter>
<linearGradient id="paint0_linear_32_62" x1="30" y1="4.25537" x2="30" y2="13.7428" gradientUnits="userSpaceOnUse">
<stop stop-color="#ABABAB"/>
<stop offset="1" stop-color="#666666"/>
</linearGradient>
<clipPath id="clip0_32_62">
<rect width="18" height="18" fill="white" transform="translate(21)"/>
</clipPath>
</defs>
</svg>
