<svg width="26" height="26" viewBox="0 0 26 26" fill="none" xmlns="http://www.w3.org/2000/svg">
<path d="M4.60419 4.33325C3.95772 4.33325 3.33773 4.59006 2.88061 5.04718C2.42349 5.5043 2.16669 6.12429 2.16669 6.77075V9.47908C2.16669 10.1256 2.42349 10.7455 2.88061 11.2027C3.33773 11.6598 3.95772 11.9166 4.60419 11.9166H7.31252C7.95899 11.9166 8.57897 11.6598 9.03609 11.2027C9.49321 10.7455 9.75002 10.1256 9.75002 9.47908V6.77075C9.75002 6.12429 9.49321 5.5043 9.03609 5.04718C8.57897 4.59006 7.95899 4.33325 7.31252 4.33325H4.60419ZM12.1875 5.41659C11.972 5.41659 11.7654 5.50219 11.613 5.65456C11.4606 5.80693 11.375 6.0136 11.375 6.22909C11.375 6.44457 11.4606 6.65124 11.613 6.80361C11.7654 6.95598 11.972 7.04158 12.1875 7.04158H23.0209C23.2363 7.04158 23.443 6.95598 23.5954 6.80361C23.7478 6.65124 23.8334 6.44457 23.8334 6.22909C23.8334 6.0136 23.7478 5.80693 23.5954 5.65456C23.443 5.50219 23.2363 5.41659 23.0209 5.41659H12.1875ZM12.1875 8.66658C11.972 8.66658 11.7654 8.75219 11.613 8.90456C11.4606 9.05693 11.375 9.2636 11.375 9.47908C11.375 9.69457 11.4606 9.90124 11.613 10.0536C11.7654 10.206 11.972 10.2916 12.1875 10.2916H19.7709C19.9863 10.2916 20.193 10.206 20.3454 10.0536C20.4978 9.90124 20.5834 9.69457 20.5834 9.47908C20.5834 9.2636 20.4978 9.05693 20.3454 8.90456C20.193 8.75219 19.9863 8.66658 19.7709 8.66658H12.1875ZM4.60419 14.0833C3.95772 14.0833 3.33773 14.3401 2.88061 14.7972C2.42349 15.2543 2.16669 15.8743 2.16669 16.5208V19.2291C2.16669 19.5492 2.22973 19.8661 2.35223 20.1619C2.47473 20.4576 2.65427 20.7263 2.88061 20.9527C3.10696 21.179 3.37566 21.3585 3.6714 21.481C3.96713 21.6035 4.28409 21.6666 4.60419 21.6666H7.31252C7.63262 21.6666 7.94958 21.6035 8.24531 21.481C8.54104 21.3585 8.80975 21.179 9.03609 20.9527C9.26244 20.7263 9.44198 20.4576 9.56448 20.1619C9.68697 19.8661 9.75002 19.5492 9.75002 19.2291V16.5208C9.75002 15.8743 9.49321 15.2543 9.03609 14.7972C8.57897 14.3401 7.95899 14.0833 7.31252 14.0833H4.60419ZM12.1875 15.1666C11.972 15.1666 11.7654 15.2522 11.613 15.4046C11.4606 15.5569 11.375 15.7636 11.375 15.9791C11.375 16.1946 11.4606 16.4012 11.613 16.5536C11.7654 16.706 11.972 16.7916 12.1875 16.7916H23.0209C23.2363 16.7916 23.443 16.706 23.5954 16.5536C23.7478 16.4012 23.8334 16.1946 23.8334 15.9791C23.8334 15.7636 23.7478 15.5569 23.5954 15.4046C23.443 15.2522 23.2363 15.1666 23.0209 15.1666H12.1875ZM12.1875 18.4166C11.972 18.4166 11.7654 18.5022 11.613 18.6546C11.4606 18.8069 11.375 19.0136 11.375 19.2291C11.375 19.4446 11.4606 19.6512 11.613 19.8036C11.7654 19.956 11.972 20.0416 12.1875 20.0416H19.7709C19.9863 20.0416 20.193 19.956 20.3454 19.8036C20.4978 19.6512 20.5834 19.4446 20.5834 19.2291C20.5834 19.0136 20.4978 18.8069 20.3454 18.6546C20.193 18.5022 19.9863 18.4166 19.7709 18.4166H12.1875Z" fill="white"/>
</svg>
