<svg width="65" height="60" viewBox="0 0 65 60" fill="none" xmlns="http://www.w3.org/2000/svg">
<g opacity="0.87" filter="url(#filter0_d_32_74)">
<path d="M29.4205 10.5066V9.16874C29.5579 9.15523 29.6817 9.15523 29.8202 9.15523C33.5026 9.04487 35.9159 12.3275 35.9159 12.3275C35.9159 12.3275 33.3089 15.9277 30.5105 15.9277C30.1367 15.9277 29.7786 15.8714 29.4205 15.7475V11.6789C30.854 11.859 31.1434 12.4784 31.9993 13.9131L33.9159 12.2993C33.9159 12.2993 32.5094 10.466 30.1648 10.466C29.9171 10.466 29.669 10.4795 29.4205 10.5066ZM29.4205 6.0663V8.06628L29.8202 8.03813C34.9373 7.85795 38.2751 12.2306 38.2751 12.2306C38.2751 12.2306 34.4407 16.9063 30.4542 16.9063C30.1073 16.9079 29.761 16.8755 29.4205 16.8094V18.0515C29.6964 18.0786 29.9858 18.1067 30.2752 18.1067C33.9857 18.1067 36.6749 16.2036 39.2818 13.9694C39.7098 14.314 41.4744 15.1552 41.8471 15.5133C39.3776 17.5819 33.613 19.252 30.3439 19.252C30.0397 19.2537 29.7357 19.2349 29.434 19.1957V20.9614H43.5431V6.0663H29.4205ZM29.4205 15.7621V16.8241C25.9858 16.2036 25.0343 12.6315 25.0343 12.6315C25.0343 12.6315 26.6896 10.8106 29.4205 10.5066V11.6665H29.4058C27.9723 11.4863 26.8405 12.8376 26.8405 12.8376C26.8405 12.8376 27.4903 15.1 29.4205 15.7621ZM23.3226 12.4795C23.3226 12.4795 25.3507 9.47279 29.4205 9.16874L29.4193 8.07979C24.9104 8.4379 21.0208 12.2453 21.0208 12.2453C21.0208 12.2453 23.228 18.6303 29.4205 19.2092V18.0515C24.8687 17.4862 23.3226 12.4795 23.3226 12.4795Z" fill="url(#paint0_linear_32_74)"/>
</g>
<defs>
<filter id="filter0_d_32_74" x="-2.25223" y="-3.00297" width="69.0683" height="69.0683" filterUnits="userSpaceOnUse" color-interpolation-filters="sRGB">
<feFlood flood-opacity="0" result="BackgroundImageFix"/>
<feColorMatrix in="SourceAlpha" type="matrix" values="0 0 0 0 0 0 0 0 0 0 0 0 0 0 0 0 0 0 127 0" result="hardAlpha"/>
<feOffset dy="18"/>
<feGaussianBlur stdDeviation="10.5"/>
<feColorMatrix type="matrix" values="0 0 0 0 0 0 0 0 0 0 0 0 0 0 0 0 0 0 0.35 0"/>
<feBlend mode="normal" in2="BackgroundImageFix" result="effect1_dropShadow_32_74"/>
<feBlend mode="normal" in="SourceGraphic" in2="effect1_dropShadow_32_74" result="shape"/>
</filter>
<linearGradient id="paint0_linear_32_74" x1="32.2819" y1="6.0663" x2="32.2819" y2="20.9614" gradientUnits="userSpaceOnUse">
<stop stop-color="white" stop-opacity="0.5"/>
<stop offset="1" stop-color="#494B53"/>
</linearGradient>
</defs>
</svg>
