<svg width="163" height="62" viewBox="0 0 163 62" fill="none" xmlns="http://www.w3.org/2000/svg">
<g filter="url(#filter0_ii_1_985)">
<path d="M149 -6.1196e-07C156.732 -2.73984e-07 163 6.26801 163 14L163 50.4999L163 56.5925C163 60.2647 159.174 62.6841 155.856 61.1097L136.349 51.852C134.473 50.9618 132.423 50.4999 130.347 50.4999L14 50.4999C6.268 50.4999 -1.93344e-06 44.2319 -1.59546e-06 36.4999L-6.1196e-07 14C-2.73984e-07 6.26802 6.26802 -6.85097e-06 14 -6.513e-06L149 -6.1196e-07Z" fill="url(#paint0_linear_1_985)"/>
</g>
<defs>
<filter id="filter0_ii_1_985" x="-1.16229" y="-1.54972" width="165.325" height="63.5358" filterUnits="userSpaceOnUse" color-interpolation-filters="sRGB">
<feFlood flood-opacity="0" result="BackgroundImageFix"/>
<feBlend mode="normal" in="SourceGraphic" in2="BackgroundImageFix" result="shape"/>
<feColorMatrix in="SourceAlpha" type="matrix" values="0 0 0 0 0 0 0 0 0 0 0 0 0 0 0 0 0 0 127 0" result="hardAlpha"/>
<feOffset dx="1.16229" dy="0.38743"/>
<feGaussianBlur stdDeviation="2.5183"/>
<feComposite in2="hardAlpha" operator="arithmetic" k2="-1" k3="1"/>
<feColorMatrix type="matrix" values="0 0 0 0 1 0 0 0 0 1 0 0 0 0 1 0 0 0 0.7 0"/>
<feBlend mode="normal" in2="shape" result="effect1_innerShadow_1_985"/>
<feColorMatrix in="SourceAlpha" type="matrix" values="0 0 0 0 0 0 0 0 0 0 0 0 0 0 0 0 0 0 127 0" result="hardAlpha"/>
<feOffset dx="-1.16229" dy="-1.54972"/>
<feGaussianBlur stdDeviation="4.12613"/>
<feComposite in2="hardAlpha" operator="arithmetic" k2="-1" k3="1"/>
<feColorMatrix type="matrix" values="0 0 0 0 0.659945 0 0 0 0 0.149234 0 0 0 0 0 0 0 0 1 0"/>
<feBlend mode="normal" in2="effect1_innerShadow_1_985" result="effect2_innerShadow_1_985"/>
</filter>
<linearGradient id="paint0_linear_1_985" x1="139.934" y1="-6.78302" x2="108.618" y2="62.5712" gradientUnits="userSpaceOnUse">
<stop stop-color="#FFC3B1"/>
<stop offset="1" stop-color="#FF4C18"/>
</linearGradient>
</defs>
</svg>
