<svg width="315" height="52" viewBox="0 0 315 52" fill="none" xmlns="http://www.w3.org/2000/svg">
<path d="M74.191 19.1504H76.2416V24.7057H89.9061V19.1504H91.9567V32.1997H89.9061V26.5792H76.2416V32.1997H74.191V19.1504ZM102.822 19.1504L110.232 26.0386L117.633 19.1504H120.187V19.4487L111.239 27.7257V32.1997H109.188V27.7257L100.249 19.4487V19.1504H102.822ZM141.248 19.1504C143.746 19.1504 144.762 20.1664 144.762 22.6644V28.6857C144.762 31.1837 143.746 32.1997 141.248 32.1997H127.844V30.3262H140.856C142.422 30.3262 142.711 30.0466 142.711 28.4713V22.8788C142.711 21.3035 142.422 21.0239 140.856 21.0239H127.844V19.1504H141.248ZM167.569 19.1504C170.067 19.1504 171.073 20.1664 171.073 22.6644V23.1025C171.073 25.6005 170.067 26.6071 167.569 26.6071H164.987L171.558 31.9014V32.1997H169.079L160.96 25.6751V24.743H167.168C168.743 24.743 169.023 24.454 169.023 22.8881V22.8788C169.023 21.3035 168.743 21.0239 167.168 21.0239H154.025V19.1504H167.569ZM198.288 32.1997L190.002 21.1078L181.753 32.1997H179.544V31.9014L189.004 19.1504H191.036L200.516 31.9014V32.1997H198.288ZM225.396 32.3861L211.359 22.0492V32.1997H209.308V18.964H210.333L224.371 29.2636V19.1504H226.421V32.3861H225.396ZM252.122 19.1504C254.62 19.1504 255.636 20.1664 255.636 22.6644V28.6857C255.636 31.1837 254.62 32.1997 252.122 32.1997H240.881C238.383 32.1997 237.377 31.1837 237.377 28.6857V22.6644C237.377 20.1664 238.383 19.1504 240.881 19.1504H252.122ZM239.427 28.4713C239.427 30.0466 239.707 30.3262 241.282 30.3262H251.731C253.297 30.3262 253.586 30.0466 253.586 28.4713V22.8788C253.586 21.3035 253.297 21.0239 251.731 21.0239H241.282C239.707 21.0239 239.427 21.3035 239.427 22.8788V28.4713ZM279.351 19.1504C281.849 19.1504 282.865 20.1664 282.865 22.6644V28.6857C282.865 31.1837 281.849 32.1997 279.351 32.1997H265.947V30.3262H278.959C280.525 30.3262 280.814 30.0466 280.814 28.4713V22.8788C280.814 21.3035 280.525 21.0239 278.959 21.0239H265.947V19.1504H279.351ZM293.992 24.743H299.315V26.6071H293.992V24.743ZM293.834 32.1997V30.3262H309.353V32.1997H293.834ZM293.834 21.0239V19.1504H309.139V21.0239H293.834Z" fill="black"/>
<path d="M0 4.49003C0 2.51404 2.15571 1.29356 3.85006 2.31028L6.4611 3.87707L19.3833 11.6312L24.6103 14.7677C25.376 15.2272 25.8444 16.0546 25.8444 16.9475V47.6101C25.8444 49.5513 23.7564 50.7762 22.062 49.829L1.3017 38.224C0.497946 37.7747 0 36.9259 0 36.0051V23.226C0 21.3495 1.96336 20.1198 3.65164 20.9388L7.80605 22.9543C9.49433 23.7733 11.4577 22.5436 11.4577 20.6671V20.1617C11.4577 19.2827 11.0036 18.4661 10.2569 18.0023L1.20076 12.3771C0.454088 11.9133 0 11.0966 0 10.2177V4.49003Z" fill="#0168C6"/>
<path d="M53.3838 4.49003C53.3838 2.51404 51.2281 1.29356 49.5337 2.31028L28.7735 14.7677C28.0078 15.2272 27.5394 16.0546 27.5394 16.9475V47.6101C27.5394 49.5513 29.6273 50.7762 31.3218 49.829L52.0821 38.224C52.8858 37.7747 53.3838 36.9259 53.3838 36.0051V4.49003Z" fill="#0168C6"/>
<line x1="0.847358" y1="-0.847358" x2="16.8901" y2="-0.847358" transform="matrix(0.859899 -0.510464 0.424789 0.905292 33.4707 25.2568)" stroke="white" stroke-width="1.69472" stroke-linecap="round"/>
<line x1="0.847358" y1="-0.847358" x2="16.8901" y2="-0.847358" transform="matrix(0.859899 -0.510464 0.424789 0.905292 33.4707 32.4062)" stroke="white" stroke-width="1.69472" stroke-linecap="round"/>
<line x1="0.847358" y1="-0.847358" x2="16.8901" y2="-0.847358" transform="matrix(0.859899 -0.510464 0.424789 0.905292 33.4707 39.5537)" stroke="white" stroke-width="1.69472" stroke-linecap="round"/>
</svg>
