<svg width="45" height="39" viewBox="0 0 45 39" fill="none" xmlns="http://www.w3.org/2000/svg">
<path d="M0.875189 2.68089C0.875189 1.63717 1.98749 0.96989 2.90835 1.46116L6.04605 3.13511L16.7574 8.84958L21.3149 11.281C21.7653 11.5212 22.0466 11.9902 22.0466 12.5007V36.0134C22.0466 37.0397 20.9679 37.7081 20.0489 37.2514L1.64237 28.1036C1.17238 27.87 0.875189 27.3905 0.875189 26.8656V16.5854C0.875189 15.5915 1.89256 14.9224 2.80515 15.316L8.09176 17.5962C9.17028 18.0613 10.3726 17.2705 10.3726 16.096V14.8736C10.3726 14.2787 10.0493 13.7309 9.52864 13.4434L1.58932 9.05891C1.14873 8.8156 0.875189 8.35205 0.875189 7.84874V2.68089Z" fill="white" stroke="black" stroke-width="0.251354"/>
<path d="M44.8744 2.68089C44.8744 1.63717 43.7621 0.96989 42.8413 1.46116L24.4347 11.281C23.9843 11.5212 23.703 11.9902 23.703 12.5007V36.0134C23.703 37.0397 24.7817 37.7081 25.7007 37.2514L44.1073 28.1036C44.5773 27.87 44.8744 27.3905 44.8744 26.8656V2.68089Z" fill="white" stroke="black" stroke-width="0.251354"/>
<line x1="28.8443" y1="17.6467" x2="40.0027" y2="11.7576" stroke="black" stroke-width="1.6787" stroke-linecap="round"/>
<line x1="28.8443" y1="22.9138" x2="40.0027" y2="17.0246" stroke="black" stroke-width="1.6787" stroke-linecap="round"/>
<line x1="28.8443" y1="28.1823" x2="40.0027" y2="22.2932" stroke="black" stroke-width="1.6787" stroke-linecap="round"/>
</svg>
