<svg xmlns="http://www.w3.org/2000/svg" width="542" height="748" viewBox="0 0 542 748" fill="none">
  <path d="M546.336 -268.411C545.111 -268.411 544.118 -269.404 544.118 -270.628C544.118 -271.853 545.111 -272.846 546.336 -272.846C547.562 -272.846 548.555 -271.853 548.555 -270.628C548.555 -269.404 547.562 -268.411 546.336 -268.411Z" fill="#D9D9D9" fill-opacity="0.5"/>
  <path d="M427.233 -268.411C426.008 -268.411 425.015 -269.404 425.015 -270.628C425.015 -271.853 426.008 -272.846 427.233 -272.846C428.458 -272.846 429.452 -271.853 429.452 -270.628C429.452 -269.404 428.458 -268.411 427.233 -268.411Z" fill="#D9D9D9" fill-opacity="0.5"/>
  <path d="M308.13 -268.411C306.905 -268.411 305.912 -269.404 305.912 -270.628C305.912 -271.853 306.905 -272.846 308.13 -272.846C309.355 -272.846 310.349 -271.853 310.349 -270.628C310.349 -269.404 309.355 -268.411 308.13 -268.411Z" fill="#D9D9D9" fill-opacity="0.5"/>
  <path d="M189.027 -268.411C187.802 -268.411 186.809 -269.404 186.809 -270.628C186.809 -271.853 187.802 -272.846 189.027 -272.846C190.252 -272.846 191.245 -271.853 191.245 -270.628C191.245 -269.404 190.252 -268.411 189.027 -268.411Z" fill="#D9D9D9" fill-opacity="0.5"/>
  <path d="M69.924 -268.411C68.6989 -268.411 67.7058 -269.404 67.7058 -270.628C67.7058 -271.853 68.6989 -272.846 69.924 -272.846C71.1492 -272.846 72.1424 -271.853 72.1424 -270.628C72.1424 -269.404 71.1492 -268.411 69.924 -268.411Z" fill="#D9D9D9" fill-opacity="0.5"/>
  <path d="M486.228 -268.411C485.003 -268.411 484.01 -269.404 484.01 -270.628C484.01 -271.853 485.003 -272.846 486.228 -272.846C487.453 -272.846 488.447 -271.853 488.447 -270.628C488.447 -269.404 487.453 -268.411 486.228 -268.411Z" fill="#D9D9D9" fill-opacity="0.5"/>
  <path d="M367.125 -268.411C365.9 -268.411 364.907 -269.404 364.907 -270.628C364.907 -271.853 365.9 -272.846 367.125 -272.846C368.35 -272.846 369.343 -271.853 369.343 -270.628C369.343 -269.404 368.35 -268.411 367.125 -268.411Z" fill="#D9D9D9" fill-opacity="0.5"/>
  <path d="M248.022 -268.411C246.797 -268.411 245.804 -269.404 245.804 -270.628C245.804 -271.853 246.797 -272.846 248.022 -272.846C249.247 -272.846 250.24 -271.853 250.24 -270.628C250.24 -269.404 249.247 -268.411 248.022 -268.411Z" fill="#D9D9D9" fill-opacity="0.5"/>
  <path d="M128.919 -268.411C127.694 -268.411 126.701 -269.404 126.701 -270.628C126.701 -271.853 127.694 -272.846 128.919 -272.846C130.144 -272.846 131.137 -271.853 131.137 -270.628C131.137 -269.404 130.144 -268.411 128.919 -268.411Z" fill="#D9D9D9" fill-opacity="0.5"/>
  <path d="M9.81598 -268.411C8.59082 -268.411 7.59772 -269.404 7.59772 -270.628C7.59772 -271.853 8.59082 -272.846 9.81598 -272.846C11.0411 -272.846 12.0342 -271.853 12.0342 -270.628C12.0342 -269.404 11.0411 -268.411 9.81598 -268.411Z" fill="#D9D9D9" fill-opacity="0.5"/>
  <path d="M546.336 -208.331C545.111 -208.331 544.118 -209.323 544.118 -210.548C544.118 -211.772 545.111 -212.765 546.336 -212.765C547.562 -212.765 548.555 -211.772 548.555 -210.548C548.555 -209.323 547.562 -208.331 546.336 -208.331Z" fill="#D9D9D9" fill-opacity="0.5"/>
  <path d="M427.233 -208.331C426.008 -208.331 425.015 -209.323 425.015 -210.548C425.015 -211.772 426.008 -212.765 427.233 -212.765C428.458 -212.765 429.452 -211.772 429.452 -210.548C429.452 -209.323 428.458 -208.331 427.233 -208.331Z" fill="#D9D9D9" fill-opacity="0.5"/>
  <path d="M308.13 -208.331C306.905 -208.331 305.912 -209.323 305.912 -210.548C305.912 -211.772 306.905 -212.765 308.13 -212.765C309.355 -212.765 310.349 -211.772 310.349 -210.548C310.349 -209.323 309.355 -208.331 308.13 -208.331Z" fill="#D9D9D9" fill-opacity="0.5"/>
  <path d="M189.027 -208.331C187.802 -208.331 186.809 -209.323 186.809 -210.548C186.809 -211.772 187.802 -212.765 189.027 -212.765C190.252 -212.765 191.245 -211.772 191.245 -210.548C191.245 -209.323 190.252 -208.331 189.027 -208.331Z" fill="#D9D9D9" fill-opacity="0.5"/>
  <path d="M69.924 -208.331C68.6989 -208.331 67.7058 -209.323 67.7058 -210.548C67.7058 -211.772 68.6989 -212.765 69.924 -212.765C71.1492 -212.765 72.1424 -211.772 72.1424 -210.548C72.1424 -209.323 71.1492 -208.331 69.924 -208.331Z" fill="#D9D9D9" fill-opacity="0.5"/>
  <path d="M486.228 -208.331C485.003 -208.331 484.01 -209.323 484.01 -210.548C484.01 -211.772 485.003 -212.765 486.228 -212.765C487.453 -212.765 488.447 -211.772 488.447 -210.548C488.447 -209.323 487.453 -208.331 486.228 -208.331Z" fill="#D9D9D9" fill-opacity="0.5"/>
  <path d="M367.125 -208.331C365.9 -208.331 364.907 -209.323 364.907 -210.548C364.907 -211.772 365.9 -212.765 367.125 -212.765C368.35 -212.765 369.343 -211.772 369.343 -210.548C369.343 -209.323 368.35 -208.331 367.125 -208.331Z" fill="#D9D9D9" fill-opacity="0.5"/>
  <path d="M248.022 -208.331C246.797 -208.331 245.804 -209.323 245.804 -210.548C245.804 -211.772 246.797 -212.765 248.022 -212.765C249.247 -212.765 250.24 -211.772 250.24 -210.548C250.24 -209.323 249.247 -208.331 248.022 -208.331Z" fill="#D9D9D9" fill-opacity="0.5"/>
  <path d="M128.919 -208.331C127.694 -208.331 126.701 -209.323 126.701 -210.548C126.701 -211.772 127.694 -212.765 128.919 -212.765C130.144 -212.765 131.137 -211.772 131.137 -210.548C131.137 -209.323 130.144 -208.331 128.919 -208.331Z" fill="#D9D9D9" fill-opacity="0.5"/>
  <path d="M9.81598 -208.331C8.59082 -208.331 7.59771 -209.323 7.59771 -210.548C7.59771 -211.772 8.59082 -212.765 9.81598 -212.765C11.0411 -212.765 12.0342 -211.772 12.0342 -210.548C12.0342 -209.323 11.0411 -208.331 9.81598 -208.331Z" fill="#D9D9D9" fill-opacity="0.5"/>
  <path d="M546.336 -148.25C545.111 -148.25 544.118 -149.243 544.118 -150.467C544.118 -151.692 545.111 -152.684 546.336 -152.684C547.562 -152.684 548.555 -151.692 548.555 -150.467C548.555 -149.243 547.562 -148.25 546.336 -148.25Z" fill="#D9D9D9" fill-opacity="0.5"/>
  <path d="M427.233 -148.25C426.008 -148.25 425.015 -149.243 425.015 -150.467C425.015 -151.692 426.008 -152.684 427.233 -152.684C428.458 -152.684 429.452 -151.692 429.452 -150.467C429.452 -149.243 428.458 -148.25 427.233 -148.25Z" fill="#D9D9D9" fill-opacity="0.5"/>
  <path d="M308.13 -148.25C306.905 -148.25 305.912 -149.243 305.912 -150.467C305.912 -151.692 306.905 -152.684 308.13 -152.684C309.355 -152.684 310.349 -151.692 310.349 -150.467C310.349 -149.243 309.355 -148.25 308.13 -148.25Z" fill="#D9D9D9" fill-opacity="0.5"/>
  <path d="M189.027 -148.25C187.802 -148.25 186.809 -149.243 186.809 -150.467C186.809 -151.692 187.802 -152.685 189.027 -152.685C190.252 -152.685 191.245 -151.692 191.245 -150.467C191.245 -149.243 190.252 -148.25 189.027 -148.25Z" fill="#D9D9D9" fill-opacity="0.5"/>
  <path d="M69.924 -148.25C68.6989 -148.25 67.7058 -149.243 67.7058 -150.467C67.7058 -151.692 68.6989 -152.685 69.924 -152.685C71.1492 -152.685 72.1424 -151.692 72.1424 -150.467C72.1424 -149.243 71.1492 -148.25 69.924 -148.25Z" fill="#D9D9D9" fill-opacity="0.5"/>
  <path d="M486.228 -148.25C485.003 -148.25 484.01 -149.243 484.01 -150.467C484.01 -151.692 485.003 -152.684 486.228 -152.684C487.453 -152.684 488.447 -151.692 488.447 -150.467C488.447 -149.243 487.453 -148.25 486.228 -148.25Z" fill="#D9D9D9" fill-opacity="0.5"/>
  <path d="M367.125 -148.25C365.9 -148.25 364.907 -149.243 364.907 -150.467C364.907 -151.692 365.9 -152.684 367.125 -152.684C368.35 -152.684 369.343 -151.692 369.343 -150.467C369.343 -149.243 368.35 -148.25 367.125 -148.25Z" fill="#D9D9D9" fill-opacity="0.5"/>
  <path d="M248.022 -148.25C246.797 -148.25 245.804 -149.243 245.804 -150.467C245.804 -151.692 246.797 -152.684 248.022 -152.684C249.247 -152.684 250.24 -151.692 250.24 -150.467C250.24 -149.243 249.247 -148.25 248.022 -148.25Z" fill="#D9D9D9" fill-opacity="0.5"/>
  <path d="M128.919 -148.25C127.694 -148.25 126.701 -149.243 126.701 -150.467C126.701 -151.692 127.694 -152.685 128.919 -152.685C130.144 -152.685 131.137 -151.692 131.137 -150.467C131.137 -149.243 130.144 -148.25 128.919 -148.25Z" fill="#D9D9D9" fill-opacity="0.5"/>
  <path d="M9.81597 -148.25C8.59081 -148.25 7.59771 -149.243 7.59771 -150.467C7.59771 -151.692 8.59082 -152.685 9.81597 -152.685C11.0411 -152.685 12.0342 -151.692 12.0342 -150.467C12.0342 -149.243 11.0411 -148.25 9.81597 -148.25Z" fill="#D9D9D9" fill-opacity="0.5"/>
  <path d="M546.336 -88.1694C545.111 -88.1694 544.118 -89.1621 544.118 -90.3866C544.118 -91.6112 545.111 -92.6039 546.336 -92.6039C547.562 -92.6039 548.555 -91.6112 548.555 -90.3866C548.555 -89.1621 547.562 -88.1694 546.336 -88.1694Z" fill="#D9D9D9" fill-opacity="0.5"/>
  <path d="M427.233 -88.1694C426.008 -88.1694 425.015 -89.1621 425.015 -90.3866C425.015 -91.6112 426.008 -92.6039 427.233 -92.6039C428.458 -92.6039 429.452 -91.6112 429.452 -90.3866C429.452 -89.1621 428.458 -88.1694 427.233 -88.1694Z" fill="#D9D9D9" fill-opacity="0.5"/>
  <path d="M308.13 -88.1694C306.905 -88.1694 305.912 -89.1621 305.912 -90.3866C305.912 -91.6112 306.905 -92.6039 308.13 -92.6039C309.355 -92.6039 310.349 -91.6112 310.349 -90.3866C310.349 -89.1621 309.355 -88.1694 308.13 -88.1694Z" fill="#D9D9D9" fill-opacity="0.5"/>
  <path d="M189.027 -88.1694C187.802 -88.1694 186.809 -89.1621 186.809 -90.3866C186.809 -91.6112 187.802 -92.6039 189.027 -92.6039C190.252 -92.6039 191.245 -91.6112 191.245 -90.3866C191.245 -89.1621 190.252 -88.1694 189.027 -88.1694Z" fill="#D9D9D9" fill-opacity="0.5"/>
  <path d="M69.924 -88.1694C68.6989 -88.1694 67.7058 -89.1621 67.7058 -90.3866C67.7058 -91.6112 68.6989 -92.6039 69.924 -92.6039C71.1492 -92.6039 72.1424 -91.6112 72.1424 -90.3866C72.1424 -89.1621 71.1492 -88.1694 69.924 -88.1694Z" fill="#D9D9D9" fill-opacity="0.5"/>
  <path d="M486.228 -88.1694C485.003 -88.1694 484.01 -89.1621 484.01 -90.3866C484.01 -91.6112 485.003 -92.6039 486.228 -92.6039C487.453 -92.6039 488.447 -91.6112 488.447 -90.3866C488.447 -89.1621 487.453 -88.1694 486.228 -88.1694Z" fill="#D9D9D9" fill-opacity="0.5"/>
  <path d="M367.125 -88.1694C365.9 -88.1694 364.907 -89.1621 364.907 -90.3866C364.907 -91.6112 365.9 -92.6039 367.125 -92.6039C368.35 -92.6039 369.343 -91.6112 369.343 -90.3866C369.343 -89.1621 368.35 -88.1694 367.125 -88.1694Z" fill="#D9D9D9" fill-opacity="0.5"/>
  <path d="M248.022 -88.1694C246.797 -88.1694 245.804 -89.1621 245.804 -90.3866C245.804 -91.6112 246.797 -92.6039 248.022 -92.6039C249.247 -92.6039 250.24 -91.6112 250.24 -90.3866C250.24 -89.1621 249.247 -88.1694 248.022 -88.1694Z" fill="#D9D9D9" fill-opacity="0.5"/>
  <path d="M128.919 -88.1694C127.694 -88.1694 126.701 -89.1621 126.701 -90.3866C126.701 -91.6112 127.694 -92.6039 128.919 -92.6039C130.144 -92.6039 131.137 -91.6112 131.137 -90.3866C131.137 -89.1621 130.144 -88.1694 128.919 -88.1694Z" fill="#D9D9D9" fill-opacity="0.5"/>
  <path d="M9.81597 -88.1694C8.59081 -88.1694 7.59771 -89.1621 7.59771 -90.3866C7.59771 -91.6112 8.59081 -92.6039 9.81597 -92.6039C11.0411 -92.6039 12.0342 -91.6112 12.0342 -90.3866C12.0342 -89.1621 11.0411 -88.1694 9.81597 -88.1694Z" fill="#D9D9D9" fill-opacity="0.5"/>
  <path d="M546.336 -28.0887C545.111 -28.0887 544.118 -29.0815 544.118 -30.306C544.118 -31.5306 545.111 -32.5233 546.336 -32.5233C547.562 -32.5233 548.555 -31.5306 548.555 -30.306C548.555 -29.0815 547.562 -28.0887 546.336 -28.0887Z" fill="#D9D9D9" fill-opacity="0.5"/>
  <path d="M427.233 -28.0888C426.008 -28.0888 425.015 -29.0815 425.015 -30.306C425.015 -31.5306 426.008 -32.5233 427.233 -32.5233C428.458 -32.5233 429.452 -31.5306 429.452 -30.306C429.452 -29.0815 428.458 -28.0888 427.233 -28.0888Z" fill="#D9D9D9" fill-opacity="0.5"/>
  <path d="M308.13 -28.0888C306.905 -28.0888 305.912 -29.0815 305.912 -30.306C305.912 -31.5306 306.905 -32.5233 308.13 -32.5233C309.355 -32.5233 310.349 -31.5306 310.349 -30.306C310.349 -29.0815 309.355 -28.0888 308.13 -28.0888Z" fill="#D9D9D9" fill-opacity="0.5"/>
  <path d="M189.027 -28.0888C187.802 -28.0888 186.809 -29.0815 186.809 -30.306C186.809 -31.5306 187.802 -32.5233 189.027 -32.5233C190.252 -32.5233 191.245 -31.5306 191.245 -30.306C191.245 -29.0815 190.252 -28.0888 189.027 -28.0888Z" fill="#D9D9D9" fill-opacity="0.5"/>
  <path d="M69.924 -28.0888C68.6989 -28.0888 67.7058 -29.0815 67.7058 -30.306C67.7058 -31.5306 68.6989 -32.5233 69.924 -32.5233C71.1492 -32.5233 72.1424 -31.5306 72.1424 -30.306C72.1424 -29.0815 71.1492 -28.0888 69.924 -28.0888Z" fill="#D9D9D9" fill-opacity="0.5"/>
  <path d="M486.228 -28.0887C485.003 -28.0887 484.01 -29.0815 484.01 -30.306C484.01 -31.5306 485.003 -32.5233 486.228 -32.5233C487.453 -32.5233 488.447 -31.5306 488.447 -30.306C488.447 -29.0815 487.453 -28.0887 486.228 -28.0887Z" fill="#D9D9D9" fill-opacity="0.5"/>
  <path d="M367.125 -28.0888C365.9 -28.0888 364.907 -29.0815 364.907 -30.306C364.907 -31.5306 365.9 -32.5233 367.125 -32.5233C368.35 -32.5233 369.343 -31.5306 369.343 -30.306C369.343 -29.0815 368.35 -28.0888 367.125 -28.0888Z" fill="#D9D9D9" fill-opacity="0.5"/>
  <path d="M248.022 -28.0888C246.797 -28.0888 245.804 -29.0815 245.804 -30.306C245.804 -31.5306 246.797 -32.5233 248.022 -32.5233C249.247 -32.5233 250.24 -31.5306 250.24 -30.306C250.24 -29.0815 249.247 -28.0888 248.022 -28.0888Z" fill="#D9D9D9" fill-opacity="0.5"/>
  <path d="M128.919 -28.0888C127.694 -28.0888 126.701 -29.0815 126.701 -30.306C126.701 -31.5306 127.694 -32.5233 128.919 -32.5233C130.144 -32.5233 131.137 -31.5306 131.137 -30.306C131.137 -29.0815 130.144 -28.0888 128.919 -28.0888Z" fill="#D9D9D9" fill-opacity="0.5"/>
  <path d="M9.81597 -28.0888C8.59081 -28.0888 7.59771 -29.0815 7.59771 -30.306C7.59771 -31.5306 8.59081 -32.5233 9.81597 -32.5233C11.0411 -32.5233 12.0342 -31.5306 12.0342 -30.306C12.0342 -29.0815 11.0411 -28.0888 9.81597 -28.0888Z" fill="#D9D9D9" fill-opacity="0.5"/>
  <path d="M546.336 31.9919C545.111 31.9919 544.118 30.9991 544.118 29.7746C544.118 28.55 545.111 27.5573 546.336 27.5573C547.562 27.5573 548.555 28.55 548.555 29.7746C548.555 30.9991 547.562 31.9919 546.336 31.9919Z" fill="#D9D9D9" fill-opacity="0.5"/>
  <path d="M427.233 31.9918C426.008 31.9918 425.015 30.9991 425.015 29.7746C425.015 28.55 426.008 27.5573 427.233 27.5573C428.458 27.5573 429.452 28.55 429.452 29.7746C429.452 30.9991 428.458 31.9918 427.233 31.9918Z" fill="#D9D9D9" fill-opacity="0.5"/>
  <path d="M308.13 31.9918C306.905 31.9918 305.912 30.9991 305.912 29.7746C305.912 28.55 306.905 27.5573 308.13 27.5573C309.355 27.5573 310.349 28.55 310.349 29.7746C310.349 30.9991 309.355 31.9918 308.13 31.9918Z" fill="#D9D9D9" fill-opacity="0.5"/>
  <path d="M189.027 31.9918C187.802 31.9918 186.809 30.9991 186.809 29.7746C186.809 28.55 187.802 27.5573 189.027 27.5573C190.252 27.5573 191.245 28.55 191.245 29.7746C191.245 30.9991 190.252 31.9918 189.027 31.9918Z" fill="#D9D9D9" fill-opacity="0.5"/>
  <path d="M69.924 31.9918C68.6989 31.9918 67.7058 30.9991 67.7058 29.7746C67.7058 28.55 68.6989 27.5573 69.924 27.5573C71.1492 27.5573 72.1424 28.55 72.1424 29.7746C72.1424 30.9991 71.1492 31.9918 69.924 31.9918Z" fill="#D9D9D9" fill-opacity="0.5"/>
  <path d="M486.228 31.9918C485.003 31.9918 484.01 30.9991 484.01 29.7746C484.01 28.55 485.003 27.5573 486.228 27.5573C487.453 27.5573 488.447 28.55 488.447 29.7746C488.447 30.9991 487.453 31.9918 486.228 31.9918Z" fill="#D9D9D9" fill-opacity="0.5"/>
  <path d="M367.125 31.9918C365.9 31.9918 364.907 30.9991 364.907 29.7746C364.907 28.55 365.9 27.5573 367.125 27.5573C368.35 27.5573 369.343 28.55 369.343 29.7746C369.343 30.9991 368.35 31.9918 367.125 31.9918Z" fill="#D9D9D9" fill-opacity="0.5"/>
  <path d="M248.022 31.9918C246.797 31.9918 245.804 30.9991 245.804 29.7746C245.804 28.55 246.797 27.5573 248.022 27.5573C249.247 27.5573 250.24 28.55 250.24 29.7746C250.24 30.9991 249.247 31.9918 248.022 31.9918Z" fill="#D9D9D9" fill-opacity="0.5"/>
  <path d="M128.919 31.9918C127.694 31.9918 126.701 30.9991 126.701 29.7746C126.701 28.55 127.694 27.5573 128.919 27.5573C130.144 27.5573 131.137 28.55 131.137 29.7746C131.137 30.9991 130.144 31.9918 128.919 31.9918Z" fill="#D9D9D9" fill-opacity="0.5"/>
  <path d="M9.81597 31.9918C8.59081 31.9918 7.5977 30.9991 7.5977 29.7746C7.5977 28.55 8.59081 27.5573 9.81597 27.5573C11.0411 27.5573 12.0342 28.55 12.0342 29.7746C12.0342 30.9991 11.0411 31.9918 9.81597 31.9918Z" fill="#D9D9D9" fill-opacity="0.5"/>
  <path d="M546.336 92.0725C545.111 92.0725 544.118 91.0798 544.118 89.8552C544.118 88.6306 545.111 87.6379 546.336 87.6379C547.562 87.6379 548.555 88.6306 548.555 89.8552C548.555 91.0798 547.562 92.0725 546.336 92.0725Z" fill="#D9D9D9" fill-opacity="0.5"/>
  <path d="M427.233 92.0725C426.008 92.0725 425.015 91.0798 425.015 89.8552C425.015 88.6306 426.008 87.6379 427.233 87.6379C428.458 87.6379 429.452 88.6306 429.452 89.8552C429.452 91.0798 428.458 92.0725 427.233 92.0725Z" fill="#D9D9D9" fill-opacity="0.5"/>
  <path d="M308.13 92.0725C306.905 92.0725 305.912 91.0798 305.912 89.8552C305.912 88.6306 306.905 87.6379 308.13 87.6379C309.355 87.6379 310.349 88.6306 310.349 89.8552C310.349 91.0798 309.355 92.0725 308.13 92.0725Z" fill="#D9D9D9" fill-opacity="0.5"/>
  <path d="M189.027 92.0725C187.802 92.0725 186.809 91.0798 186.809 89.8552C186.809 88.6306 187.802 87.6379 189.027 87.6379C190.252 87.6379 191.245 88.6306 191.245 89.8552C191.245 91.0798 190.252 92.0725 189.027 92.0725Z" fill="#D9D9D9" fill-opacity="0.5"/>
  <path d="M69.924 92.0725C68.6989 92.0725 67.7058 91.0798 67.7058 89.8552C67.7058 88.6306 68.6989 87.6379 69.924 87.6379C71.1492 87.6379 72.1423 88.6306 72.1423 89.8552C72.1423 91.0798 71.1492 92.0725 69.924 92.0725Z" fill="#D9D9D9" fill-opacity="0.5"/>
  <path d="M486.228 92.0725C485.003 92.0725 484.01 91.0798 484.01 89.8552C484.01 88.6306 485.003 87.6379 486.228 87.6379C487.453 87.6379 488.447 88.6306 488.447 89.8552C488.447 91.0798 487.453 92.0725 486.228 92.0725Z" fill="#D9D9D9" fill-opacity="0.5"/>
  <path d="M367.125 92.0725C365.9 92.0725 364.907 91.0798 364.907 89.8552C364.907 88.6306 365.9 87.6379 367.125 87.6379C368.35 87.6379 369.343 88.6306 369.343 89.8552C369.343 91.0798 368.35 92.0725 367.125 92.0725Z" fill="#D9D9D9" fill-opacity="0.5"/>
  <path d="M248.022 92.0725C246.797 92.0725 245.804 91.0798 245.804 89.8552C245.804 88.6306 246.797 87.6379 248.022 87.6379C249.247 87.6379 250.24 88.6306 250.24 89.8552C250.24 91.0798 249.247 92.0725 248.022 92.0725Z" fill="#D9D9D9" fill-opacity="0.5"/>
  <path d="M128.919 92.0725C127.694 92.0725 126.701 91.0798 126.701 89.8552C126.701 88.6306 127.694 87.6379 128.919 87.6379C130.144 87.6379 131.137 88.6306 131.137 89.8552C131.137 91.0798 130.144 92.0725 128.919 92.0725Z" fill="#D9D9D9" fill-opacity="0.5"/>
  <path d="M9.81596 92.0725C8.5908 92.0725 7.5977 91.0797 7.5977 89.8552C7.5977 88.6306 8.5908 87.6379 9.81596 87.6379C11.0411 87.6379 12.0342 88.6306 12.0342 89.8552C12.0342 91.0797 11.0411 92.0725 9.81596 92.0725Z" fill="#D9D9D9" fill-opacity="0.5"/>
</svg>

